<mxfile host="app.diagrams.net" modified="2021-10-04T03:26:20.310Z" agent="5.0 (X11)" etag="8MCIerCb3iumUAOEksTY" version="15.4.1" type="github">
  <diagram name="Page-1" id="e7e014a7-5840-1c2e-5031-d8a46d1fe8dd">
    <mxGraphModel dx="1588" dy="933" grid="1" gridSize="10" guides="1" tooltips="1" connect="1" arrows="1" fold="1" page="1" pageScale="1" pageWidth="1169" pageHeight="826" background="none" math="0" shadow="0">
      <root>
        <mxCell id="0" />
        <mxCell id="1" parent="0" />
        <mxCell id="2" value="Initialize" style="swimlane;whiteSpace=wrap;startSize=52;" parent="1" vertex="1">
          <mxGeometry x="30" y="67" width="280" height="692" as="geometry" />
        </mxCell>
        <mxCell id="_cUPyu8kT2q1d8upBaRI-48" value="&lt;div&gt;Set Up Local&lt;/div&gt;&lt;div&gt;Device&lt;br&gt;&lt;/div&gt;" style="rounded=1;whiteSpace=wrap;html=1;arcSize=50;" vertex="1" parent="2">
          <mxGeometry x="80" y="112" width="120" height="60" as="geometry" />
        </mxCell>
        <mxCell id="_cUPyu8kT2q1d8upBaRI-51" style="edgeStyle=orthogonalEdgeStyle;rounded=0;orthogonalLoop=1;jettySize=auto;html=1;exitX=0.5;exitY=1;exitDx=0;exitDy=0;exitPerimeter=0;entryX=0.5;entryY=0;entryDx=0;entryDy=0;" edge="1" parent="2" source="_cUPyu8kT2q1d8upBaRI-49" target="_cUPyu8kT2q1d8upBaRI-48">
          <mxGeometry relative="1" as="geometry" />
        </mxCell>
        <mxCell id="_cUPyu8kT2q1d8upBaRI-49" value="" style="strokeWidth=2;html=1;shape=mxgraph.flowchart.start_2;whiteSpace=wrap;" vertex="1" parent="2">
          <mxGeometry x="130" y="62" width="20" height="20" as="geometry" />
        </mxCell>
        <mxCell id="3" value="Discover Devices and&#xa;Services&#xa;Consume Service" style="swimlane;whiteSpace=wrap;startSize=52;" parent="1" vertex="1">
          <mxGeometry x="310" y="67" width="280.5" height="692" as="geometry" />
        </mxCell>
        <mxCell id="_cUPyu8kT2q1d8upBaRI-53" value="" style="line;strokeWidth=1;fillColor=none;align=left;verticalAlign=middle;spacingTop=-1;spacingLeft=3;spacingRight=3;rotatable=0;labelPosition=right;points=[];portConstraint=eastwest;" vertex="1" parent="3">
          <mxGeometry x="0.5" y="112" width="280" height="8" as="geometry" />
        </mxCell>
        <mxCell id="_cUPyu8kT2q1d8upBaRI-70" style="edgeStyle=orthogonalEdgeStyle;rounded=0;orthogonalLoop=1;jettySize=auto;html=1;exitX=0.5;exitY=1;exitDx=0;exitDy=0;entryX=0.5;entryY=0;entryDx=0;entryDy=0;" edge="1" parent="3" source="_cUPyu8kT2q1d8upBaRI-54" target="_cUPyu8kT2q1d8upBaRI-66">
          <mxGeometry relative="1" as="geometry">
            <Array as="points">
              <mxPoint x="63" y="342" />
              <mxPoint x="188" y="342" />
            </Array>
          </mxGeometry>
        </mxCell>
        <mxCell id="_cUPyu8kT2q1d8upBaRI-54" value="&lt;div&gt;Retrieve&lt;/div&gt;&lt;div&gt;Cached&lt;/div&gt;&lt;div&gt;Devices&lt;br&gt;&lt;/div&gt;" style="rounded=1;whiteSpace=wrap;html=1;arcSize=50;" vertex="1" parent="3">
          <mxGeometry x="15.5" y="142" width="94.5" height="48" as="geometry" />
        </mxCell>
        <mxCell id="_cUPyu8kT2q1d8upBaRI-64" style="edgeStyle=orthogonalEdgeStyle;rounded=0;orthogonalLoop=1;jettySize=auto;html=1;exitX=0.5;exitY=1;exitDx=0;exitDy=0;entryX=0.5;entryY=0;entryDx=0;entryDy=0;" edge="1" parent="3" source="_cUPyu8kT2q1d8upBaRI-55" target="_cUPyu8kT2q1d8upBaRI-62">
          <mxGeometry relative="1" as="geometry" />
        </mxCell>
        <mxCell id="_cUPyu8kT2q1d8upBaRI-55" value="&lt;div&gt;Retrieve&lt;/div&gt;&lt;div&gt;Cached&lt;/div&gt;&lt;div&gt;Devices&lt;br&gt;&lt;/div&gt;" style="rounded=1;whiteSpace=wrap;html=1;arcSize=50;" vertex="1" parent="3">
          <mxGeometry x="140.5" y="142" width="94.5" height="48" as="geometry" />
        </mxCell>
        <mxCell id="_cUPyu8kT2q1d8upBaRI-59" value="" style="endArrow=classic;html=1;rounded=0;edgeStyle=orthogonalEdgeStyle;exitX=0.221;exitY=0.625;exitDx=0;exitDy=0;exitPerimeter=0;entryX=0.5;entryY=0;entryDx=0;entryDy=0;" edge="1" parent="3" source="_cUPyu8kT2q1d8upBaRI-53" target="_cUPyu8kT2q1d8upBaRI-54">
          <mxGeometry width="50" height="50" relative="1" as="geometry">
            <mxPoint x="275.5" y="332" as="sourcePoint" />
            <mxPoint x="325.5" y="282" as="targetPoint" />
            <Array as="points">
              <mxPoint x="63" y="117" />
              <mxPoint x="63" y="117" />
            </Array>
          </mxGeometry>
        </mxCell>
        <mxCell id="_cUPyu8kT2q1d8upBaRI-61" value="" style="endArrow=classic;html=1;rounded=0;edgeStyle=orthogonalEdgeStyle;exitX=0.661;exitY=0.625;exitDx=0;exitDy=0;exitPerimeter=0;entryX=0.5;entryY=0;entryDx=0;entryDy=0;" edge="1" parent="3" source="_cUPyu8kT2q1d8upBaRI-53" target="_cUPyu8kT2q1d8upBaRI-55">
          <mxGeometry width="50" height="50" relative="1" as="geometry">
            <mxPoint x="115.50000000000011" y="212" as="sourcePoint" />
            <mxPoint x="198.62" y="427" as="targetPoint" />
            <Array as="points">
              <mxPoint x="188" y="117" />
            </Array>
          </mxGeometry>
        </mxCell>
        <mxCell id="_cUPyu8kT2q1d8upBaRI-68" style="edgeStyle=orthogonalEdgeStyle;rounded=0;orthogonalLoop=1;jettySize=auto;html=1;exitX=0.5;exitY=1;exitDx=0;exitDy=0;entryX=0.5;entryY=0;entryDx=0;entryDy=0;" edge="1" parent="3" source="_cUPyu8kT2q1d8upBaRI-63" target="_cUPyu8kT2q1d8upBaRI-66">
          <mxGeometry relative="1" as="geometry" />
        </mxCell>
        <mxCell id="_cUPyu8kT2q1d8upBaRI-63" value="&lt;div&gt;Process&lt;/div&gt;&lt;div&gt;Inquiry&lt;/div&gt;&lt;div&gt;Completed&lt;br&gt;&lt;/div&gt;" style="rounded=1;whiteSpace=wrap;html=1;arcSize=50;" vertex="1" parent="3">
          <mxGeometry x="140.5" y="285" width="94.5" height="48" as="geometry" />
        </mxCell>
        <mxCell id="_cUPyu8kT2q1d8upBaRI-65" style="edgeStyle=orthogonalEdgeStyle;rounded=0;orthogonalLoop=1;jettySize=auto;html=1;exitX=0.5;exitY=1;exitDx=0;exitDy=0;entryX=0.5;entryY=0;entryDx=0;entryDy=0;" edge="1" parent="3" source="_cUPyu8kT2q1d8upBaRI-62" target="_cUPyu8kT2q1d8upBaRI-63">
          <mxGeometry relative="1" as="geometry" />
        </mxCell>
        <mxCell id="_cUPyu8kT2q1d8upBaRI-62" value="&lt;div&gt;Process&lt;/div&gt;&lt;div&gt;Discovered&lt;/div&gt;&lt;div&gt;Device&lt;br&gt;&lt;/div&gt;" style="rounded=1;whiteSpace=wrap;html=1;arcSize=50;" vertex="1" parent="3">
          <mxGeometry x="140.5" y="212" width="94.5" height="48" as="geometry" />
        </mxCell>
        <mxCell id="_cUPyu8kT2q1d8upBaRI-72" style="edgeStyle=orthogonalEdgeStyle;rounded=0;orthogonalLoop=1;jettySize=auto;html=1;exitX=0;exitY=0.5;exitDx=0;exitDy=0;entryX=0.5;entryY=0;entryDx=0;entryDy=0;" edge="1" parent="3" source="_cUPyu8kT2q1d8upBaRI-66" target="_cUPyu8kT2q1d8upBaRI-71">
          <mxGeometry relative="1" as="geometry" />
        </mxCell>
        <mxCell id="_cUPyu8kT2q1d8upBaRI-66" value="" style="rhombus;whiteSpace=wrap;html=1;" vertex="1" parent="3">
          <mxGeometry x="176.62" y="362" width="22.25" height="18" as="geometry" />
        </mxCell>
        <mxCell id="_cUPyu8kT2q1d8upBaRI-84" style="edgeStyle=orthogonalEdgeStyle;rounded=0;orthogonalLoop=1;jettySize=auto;html=1;exitX=0.5;exitY=1;exitDx=0;exitDy=0;entryX=0.503;entryY=0.375;entryDx=0;entryDy=0;entryPerimeter=0;" edge="1" parent="3" source="_cUPyu8kT2q1d8upBaRI-71" target="_cUPyu8kT2q1d8upBaRI-83">
          <mxGeometry relative="1" as="geometry" />
        </mxCell>
        <mxCell id="_cUPyu8kT2q1d8upBaRI-71" value="&lt;div&gt;Discover&lt;/div&gt;&lt;div&gt;Services&lt;br&gt;&lt;/div&gt;" style="rounded=1;whiteSpace=wrap;html=1;arcSize=50;" vertex="1" parent="3">
          <mxGeometry x="46" y="392" width="94.5" height="38" as="geometry" />
        </mxCell>
        <mxCell id="_cUPyu8kT2q1d8upBaRI-83" value="" style="line;strokeWidth=1;fillColor=none;align=left;verticalAlign=middle;spacingTop=-1;spacingLeft=3;spacingRight=3;rotatable=0;labelPosition=right;points=[];portConstraint=eastwest;" vertex="1" parent="3">
          <mxGeometry x="10" y="452" width="170" height="8" as="geometry" />
        </mxCell>
        <mxCell id="_cUPyu8kT2q1d8upBaRI-85" value="&lt;div&gt;Process&lt;/div&gt;&lt;div&gt;Discovered&lt;/div&gt;&lt;div&gt;Services&lt;br&gt;&lt;/div&gt;" style="rounded=1;whiteSpace=wrap;html=1;arcSize=50;" vertex="1" parent="3">
          <mxGeometry x="0.5" y="492" width="94.5" height="48" as="geometry" />
        </mxCell>
        <mxCell id="_cUPyu8kT2q1d8upBaRI-91" style="edgeStyle=orthogonalEdgeStyle;rounded=0;orthogonalLoop=1;jettySize=auto;html=1;exitX=0.5;exitY=1;exitDx=0;exitDy=0;entryX=0.5;entryY=0;entryDx=0;entryDy=0;" edge="1" parent="3" source="_cUPyu8kT2q1d8upBaRI-86" target="_cUPyu8kT2q1d8upBaRI-90">
          <mxGeometry relative="1" as="geometry" />
        </mxCell>
        <mxCell id="_cUPyu8kT2q1d8upBaRI-86" value="&lt;div&gt;Process&lt;/div&gt;&lt;div&gt;Service Search&lt;/div&gt;&lt;div&gt;Completed&lt;br&gt;&lt;/div&gt;" style="rounded=1;whiteSpace=wrap;html=1;arcSize=50;" vertex="1" parent="3">
          <mxGeometry x="125.5" y="492" width="94.5" height="48" as="geometry" />
        </mxCell>
        <mxCell id="_cUPyu8kT2q1d8upBaRI-88" value="" style="endArrow=classic;html=1;rounded=0;edgeStyle=orthogonalEdgeStyle;entryX=0.5;entryY=0;entryDx=0;entryDy=0;exitX=0.221;exitY=0.559;exitDx=0;exitDy=0;exitPerimeter=0;" edge="1" parent="3" source="_cUPyu8kT2q1d8upBaRI-83" target="_cUPyu8kT2q1d8upBaRI-85">
          <mxGeometry width="50" height="50" relative="1" as="geometry">
            <mxPoint x="47.5" y="462" as="sourcePoint" />
            <mxPoint x="325.5" y="432" as="targetPoint" />
            <Array as="points">
              <mxPoint x="48" y="476" />
              <mxPoint x="48" y="476" />
            </Array>
          </mxGeometry>
        </mxCell>
        <mxCell id="_cUPyu8kT2q1d8upBaRI-89" value="" style="endArrow=classic;html=1;rounded=0;edgeStyle=orthogonalEdgeStyle;entryX=0.5;entryY=0;entryDx=0;entryDy=0;exitX=0.953;exitY=0.604;exitDx=0;exitDy=0;exitPerimeter=0;" edge="1" parent="3" source="_cUPyu8kT2q1d8upBaRI-83" target="_cUPyu8kT2q1d8upBaRI-86">
          <mxGeometry width="50" height="50" relative="1" as="geometry">
            <mxPoint x="57.569999999999936" y="466.472" as="sourcePoint" />
            <mxPoint x="57.75" y="502" as="targetPoint" />
            <Array as="points">
              <mxPoint x="172" y="467" />
              <mxPoint x="173" y="467" />
            </Array>
          </mxGeometry>
        </mxCell>
        <mxCell id="_cUPyu8kT2q1d8upBaRI-93" style="edgeStyle=orthogonalEdgeStyle;rounded=0;orthogonalLoop=1;jettySize=auto;html=1;exitX=0;exitY=0.5;exitDx=0;exitDy=0;entryX=0.5;entryY=0;entryDx=0;entryDy=0;" edge="1" parent="3" source="_cUPyu8kT2q1d8upBaRI-90" target="_cUPyu8kT2q1d8upBaRI-92">
          <mxGeometry relative="1" as="geometry" />
        </mxCell>
        <mxCell id="_cUPyu8kT2q1d8upBaRI-96" style="edgeStyle=orthogonalEdgeStyle;rounded=0;orthogonalLoop=1;jettySize=auto;html=1;exitX=1;exitY=0.5;exitDx=0;exitDy=0;entryX=0.5;entryY=0;entryDx=0;entryDy=0;entryPerimeter=0;" edge="1" parent="3" source="_cUPyu8kT2q1d8upBaRI-90" target="_cUPyu8kT2q1d8upBaRI-95">
          <mxGeometry relative="1" as="geometry" />
        </mxCell>
        <mxCell id="_cUPyu8kT2q1d8upBaRI-90" value="" style="rhombus;whiteSpace=wrap;html=1;" vertex="1" parent="3">
          <mxGeometry x="161.63" y="562" width="22.25" height="18" as="geometry" />
        </mxCell>
        <mxCell id="_cUPyu8kT2q1d8upBaRI-92" value="&lt;div&gt;Consume&lt;/div&gt;&lt;div&gt;Service&lt;br&gt;&lt;/div&gt;" style="rounded=1;whiteSpace=wrap;html=1;arcSize=50;" vertex="1" parent="3">
          <mxGeometry x="47.75" y="602" width="94.5" height="38" as="geometry" />
        </mxCell>
        <mxCell id="_cUPyu8kT2q1d8upBaRI-95" value="Do nothing" style="shape=note2;boundedLbl=1;whiteSpace=wrap;html=1;size=7;verticalAlign=top;align=center;" vertex="1" parent="3">
          <mxGeometry x="190" y="601" width="70" height="40" as="geometry" />
        </mxCell>
        <mxCell id="4" value="Advertise&#xa;Service&#xa;Provide&#xa;Service" style="swimlane;whiteSpace=wrap;startSize=52;" parent="1" vertex="1">
          <mxGeometry x="590" y="67" width="280" height="692" as="geometry">
            <mxRectangle x="724.5" y="128" width="80" height="23" as="alternateBounds" />
          </mxGeometry>
        </mxCell>
        <mxCell id="_cUPyu8kT2q1d8upBaRI-77" style="edgeStyle=orthogonalEdgeStyle;rounded=0;orthogonalLoop=1;jettySize=auto;html=1;exitX=0.5;exitY=1;exitDx=0;exitDy=0;entryX=0.5;entryY=0;entryDx=0;entryDy=0;" edge="1" parent="4" source="_cUPyu8kT2q1d8upBaRI-73" target="_cUPyu8kT2q1d8upBaRI-74">
          <mxGeometry relative="1" as="geometry" />
        </mxCell>
        <mxCell id="_cUPyu8kT2q1d8upBaRI-73" value="&lt;div&gt;Create Service&lt;/div&gt;&lt;div&gt;Record (SR)&lt;br&gt;&lt;/div&gt;" style="rounded=1;whiteSpace=wrap;html=1;arcSize=50;" vertex="1" parent="4">
          <mxGeometry x="92.75" y="64" width="94.5" height="48" as="geometry" />
        </mxCell>
        <mxCell id="_cUPyu8kT2q1d8upBaRI-76" value="&lt;div&gt;Process&lt;/div&gt;&lt;div&gt;Incoming&lt;/div&gt;&lt;div&gt;Connections&lt;br&gt;&lt;/div&gt;" style="rounded=1;whiteSpace=wrap;html=1;arcSize=50;" vertex="1" parent="4">
          <mxGeometry x="92.75" y="272" width="94.5" height="48" as="geometry" />
        </mxCell>
        <mxCell id="_cUPyu8kT2q1d8upBaRI-79" style="edgeStyle=orthogonalEdgeStyle;rounded=0;orthogonalLoop=1;jettySize=auto;html=1;exitX=0.5;exitY=1;exitDx=0;exitDy=0;entryX=0.5;entryY=0;entryDx=0;entryDy=0;" edge="1" parent="4" source="_cUPyu8kT2q1d8upBaRI-75" target="_cUPyu8kT2q1d8upBaRI-76">
          <mxGeometry relative="1" as="geometry" />
        </mxCell>
        <mxCell id="_cUPyu8kT2q1d8upBaRI-75" value="&lt;div&gt;Wait for&lt;/div&gt;&lt;div&gt;Incoming&lt;/div&gt;&lt;div&gt;Connections&lt;br&gt;&lt;/div&gt;" style="rounded=1;whiteSpace=wrap;html=1;arcSize=50;" vertex="1" parent="4">
          <mxGeometry x="92.75" y="202" width="94.5" height="48" as="geometry" />
        </mxCell>
        <mxCell id="_cUPyu8kT2q1d8upBaRI-78" style="edgeStyle=orthogonalEdgeStyle;rounded=0;orthogonalLoop=1;jettySize=auto;html=1;exitX=0.5;exitY=1;exitDx=0;exitDy=0;entryX=0.5;entryY=0;entryDx=0;entryDy=0;" edge="1" parent="4" source="_cUPyu8kT2q1d8upBaRI-74" target="_cUPyu8kT2q1d8upBaRI-75">
          <mxGeometry relative="1" as="geometry" />
        </mxCell>
        <mxCell id="_cUPyu8kT2q1d8upBaRI-74" value="&lt;div&gt;Add SR to&lt;/div&gt;&lt;div&gt;SDDB&lt;br&gt;&lt;/div&gt;" style="rounded=1;whiteSpace=wrap;html=1;arcSize=50;" vertex="1" parent="4">
          <mxGeometry x="92.75" y="132" width="97.25" height="48" as="geometry" />
        </mxCell>
        <mxCell id="_cUPyu8kT2q1d8upBaRI-41" value="De-register&#xa;Service" style="swimlane;whiteSpace=wrap;startSize=52;" vertex="1" parent="1">
          <mxGeometry x="870" y="67" width="280" height="692" as="geometry">
            <mxRectangle x="724.5" y="128" width="80" height="23" as="alternateBounds" />
          </mxGeometry>
        </mxCell>
        <mxCell id="_cUPyu8kT2q1d8upBaRI-82" style="edgeStyle=orthogonalEdgeStyle;rounded=0;orthogonalLoop=1;jettySize=auto;html=1;exitX=0.5;exitY=1;exitDx=0;exitDy=0;entryX=0.5;entryY=0;entryDx=0;entryDy=0;" edge="1" parent="_cUPyu8kT2q1d8upBaRI-41" source="_cUPyu8kT2q1d8upBaRI-80" target="_cUPyu8kT2q1d8upBaRI-81">
          <mxGeometry relative="1" as="geometry" />
        </mxCell>
        <mxCell id="_cUPyu8kT2q1d8upBaRI-80" value="&lt;div&gt;Remove SR&lt;/div&gt;&lt;div&gt;From SDDB&lt;br&gt;&lt;/div&gt;" style="rounded=1;whiteSpace=wrap;html=1;arcSize=50;" vertex="1" parent="_cUPyu8kT2q1d8upBaRI-41">
          <mxGeometry x="92.75" y="72" width="94.5" height="48" as="geometry" />
        </mxCell>
        <mxCell id="_cUPyu8kT2q1d8upBaRI-81" value="" style="ellipse;html=1;shape=endState;fillColor=#000000;strokeColor=#ff0000;" vertex="1" parent="_cUPyu8kT2q1d8upBaRI-41">
          <mxGeometry x="125.5" y="172" width="30" height="30" as="geometry" />
        </mxCell>
        <mxCell id="_cUPyu8kT2q1d8upBaRI-94" value="Do nothing" style="shape=note2;boundedLbl=1;whiteSpace=wrap;html=1;size=7;verticalAlign=top;align=center;" vertex="1" parent="1">
          <mxGeometry x="500" y="460" width="70" height="40" as="geometry" />
        </mxCell>
        <mxCell id="_cUPyu8kT2q1d8upBaRI-97" style="edgeStyle=orthogonalEdgeStyle;rounded=0;orthogonalLoop=1;jettySize=auto;html=1;exitX=1;exitY=0.5;exitDx=0;exitDy=0;entryX=0.5;entryY=0;entryDx=0;entryDy=0;entryPerimeter=0;" edge="1" parent="1" source="_cUPyu8kT2q1d8upBaRI-66" target="_cUPyu8kT2q1d8upBaRI-94">
          <mxGeometry relative="1" as="geometry" />
        </mxCell>
      </root>
    </mxGraphModel>
  </diagram>
</mxfile>
